<svg width="81" height="50" viewBox="0 0 81 50" fill="none" xmlns="http://www.w3.org/2000/svg">
<g clip-path="url(#clip0_2176_4114)">
<path fill-rule="evenodd" clip-rule="evenodd" d="M11.6805 46.6954C11.6706 46.7141 11.6513 46.7514 11.6418 46.7796C10.5958 48.6849 8.54184 49.9828 6.1977 49.9828C2.79764 49.9828 0.00805664 47.2369 0.00805664 43.8466C0.00805664 40.4751 2.79764 37.7104 6.1977 37.7104C8.55175 37.7104 10.6151 39.0366 11.6513 40.9701C11.6805 41.0074 11.69 41.026 11.7192 41.082C11.7292 41.0916 9.74319 42.4737 9.72384 42.4459C9.71393 42.4086 9.70449 42.3804 9.68514 42.3617C9.11328 40.9887 7.75764 40.0734 6.1977 40.1016C4.115 40.1203 2.40035 41.7826 2.40035 43.8466C2.40035 45.9294 4.115 47.6108 6.1977 47.6108C7.70903 47.6108 9.02643 46.7141 9.62662 45.4439C9.65588 45.3971 9.66579 45.3598 9.68514 45.3225L11.6805 46.6954Z" fill="#161413"/>
<path fill-rule="evenodd" clip-rule="evenodd" d="M14.2473 37.8228H16.6302V42.1096H22.8882V37.8228H25.2904V49.7494H22.8882V44.5099H16.6302V49.7494H14.2473V37.8228Z" fill="#161413"/>
<path fill-rule="evenodd" clip-rule="evenodd" d="M58.9233 49.7494V37.8228H67.5735V40.2321H61.3352V42.6137H67.099V44.9953H61.3352V47.3769H68.4549V49.7494H58.9233Z" fill="#161413"/>
<path fill-rule="evenodd" clip-rule="evenodd" d="M71.8357 49.7494V37.8228H74.2573V47.3769H80.9802V49.7494H71.8357Z" fill="#161413"/>
<path fill-rule="evenodd" clip-rule="evenodd" d="M45.9233 49.7494H45.8459H43.5017V37.8228H43.6759H46.8627L52.1615 44.9953V37.8228H54.5638V49.7494H52.6458L45.9233 40.7553V49.7494Z" fill="#161413"/>
<path fill-rule="evenodd" clip-rule="evenodd" d="M34.3863 40.2321L32.2748 44.9953H36.595L34.3863 40.2321ZM31.1895 47.3769L30.0854 49.7494H27.218L32.7009 37.8228H36.0524L41.5739 49.7494H38.7065L37.5929 47.3769H31.1895Z" fill="#161413"/>
<path fill-rule="evenodd" clip-rule="evenodd" d="M41.7384 33.2293C39.1403 34.6778 36.0321 35.5387 32.7205 35.5387C25.9448 35.5387 20.0101 31.9771 16.8003 26.6961C16.8003 26.6715 16.7755 26.6715 16.7755 26.647C16.7755 26.6225 16.7494 26.6225 16.7494 26.5979L19.3477 25.2967L21.9458 24.0187C21.9718 24.0444 21.9979 24.0678 22.0227 24.118C24.2387 27.5803 28.2128 29.8897 32.7205 29.8897C34.1735 29.8897 35.5743 29.6444 36.8225 29.2507C34.0457 26.1809 32.3645 22.1533 32.3645 17.7565C32.3645 13.3854 34.0209 9.35775 36.7716 6.26225C35.5234 5.84524 34.1475 5.62446 32.7205 5.62446C28.2637 5.62446 24.137 7.93265 21.8701 11.6414C21.844 11.6659 21.844 11.6916 21.844 11.715L16.6228 9.11245C16.6476 9.06339 16.6737 9.01433 16.6985 8.98863C19.8835 3.61064 25.8939 0 32.7205 0C36.0321 0 39.1403 0.859731 41.7384 2.33389C44.3365 0.859731 47.4447 0 50.7551 0C57.5818 0 63.5935 3.61064 66.7774 8.98863C66.8028 9.01433 66.8282 9.06339 66.8537 9.11245L61.632 11.715C61.632 11.6916 61.632 11.6659 61.6065 11.6414C59.3398 7.93265 55.2133 5.62446 50.7551 5.62446C49.3294 5.62446 47.9535 5.84524 46.7052 6.26225C49.456 9.35775 51.1124 13.3854 51.1124 17.7565C51.1124 22.1533 49.4312 26.1809 46.6543 29.2507C47.9026 29.6444 49.3033 29.8897 50.7551 29.8897C55.2642 29.8897 59.238 27.5803 61.4539 24.118C61.4793 24.0678 61.5048 24.0444 61.5302 24.0187L64.1277 25.2967L66.7265 26.5979C66.7265 26.6225 66.701 26.6225 66.701 26.647C66.701 26.6715 66.6756 26.6715 66.6756 26.6961C63.4662 31.9771 57.531 35.5387 50.7551 35.5387C47.4447 35.5387 44.3365 34.6778 41.7384 33.2293ZM41.7384 26.1809C39.5981 23.9954 38.2233 21.0237 38.2233 17.7565C38.2233 14.5395 39.5224 11.6169 41.7384 9.43134C43.9544 11.6169 45.2536 14.5395 45.2536 17.7565C45.2536 21.0237 43.8775 23.9954 41.7384 26.1809Z" fill="#161413"/>
</g>
<defs>
<clipPath id="clip0_2176_4114">
<rect width="81" height="50" fill="white"/>
</clipPath>
</defs>
</svg>
