<svg width="95" height="50" viewBox="0 0 95 50" fill="none" xmlns="http://www.w3.org/2000/svg">
<g clip-path="url(#clip0_2176_4046)">
<path d="M36.5166 5.36671C41.1859 0.918559 49.1894 0.714855 54.1963 4.72597C56.8666 6.81856 58.3242 10.3334 57.8717 13.7C57.46 17.2408 55.1865 20.3519 52.2863 22.3297C53.7661 22.3889 55.2459 22.3815 56.7294 22.3519C57.3117 21.626 57.6492 20.2778 58.8619 20.5556C58.2314 21.7704 57.6009 22.9889 56.9371 24.1852C53.9404 24.1334 50.94 24.263 47.947 24.1111C49.8385 22.4297 51.7596 20.7037 52.965 18.4371C55.1309 14.5519 55.1569 9.19634 52.0674 5.78152C49.1264 2.37411 43.3407 2.08893 40.051 5.14078C37.9333 6.97411 36.8726 9.83708 36.9319 12.6C36.9394 15.6741 38.2337 18.6593 40.2402 20.9556C41.2007 22.1149 42.4024 23.0371 43.452 24.1111C40.459 24.2482 37.466 24.163 34.473 24.1593C33.8537 22.9482 33.1935 21.7556 32.5815 20.5371C33.8314 20.2186 34.1207 21.6667 34.7586 22.3704C36.2161 22.3556 37.6737 22.363 39.1312 22.363C36.8095 20.6889 34.8254 18.3889 33.9909 15.6111C32.83 12.0852 33.7832 7.92226 36.5166 5.36671Z" fill="#C50124"/>
<path d="M84.6416 28.4741C87.8942 34.6778 90.9688 40.9778 94.2028 47.1926V47.2852C93.1977 47.2852 92.1964 47.2815 91.195 47.2667C90.5905 46.0519 89.9711 44.8408 89.3814 43.6223C86.2475 43.626 83.1173 43.6297 79.9871 43.6186C79.3529 44.8297 78.7446 46.0519 78.1364 47.2778C77.1165 47.2852 76.0966 47.2852 75.0767 47.2852C78.3144 41.0408 81.4669 34.7519 84.6416 28.4741ZM81.2777 40.9926C83.5327 41.0815 85.7913 41.0223 88.05 41.0334C86.9225 38.8223 85.8284 36.5926 84.649 34.4075C83.5215 36.6 82.4386 38.8186 81.2777 40.9926Z" fill="#C50124"/>
<path d="M1.08296 34.0928C3.03749 30.1521 8.05546 28.0928 12.2093 29.6039C16.7117 30.9669 19.4525 36.078 18.2917 40.6002C17.3311 44.7706 13.1884 47.9743 8.87881 47.6632C4.21688 47.5965 0.200274 43.4854 0 38.8743V37.9928C0.126098 36.6447 0.430218 35.2891 1.08296 34.0928ZM7.16535 32.0632C3.09312 33.2854 1.38708 38.7039 3.79408 42.1336C5.73006 45.3039 10.507 46.0336 13.3516 43.678C16.2556 41.4965 16.6709 36.8965 14.3826 34.1262C12.7211 32.0188 9.69103 31.178 7.16535 32.0632Z" fill="#C50124"/>
<path d="M19.1335 47.241C21.203 41.2521 22.8127 35.1039 24.9712 29.1484C26.7254 33.1447 28.4685 37.1484 30.1078 41.1891C31.8843 37.1298 33.6757 33.0743 35.3224 28.9595C37.3399 35.0373 39.1906 41.1669 41.1192 47.2743C40.1957 47.2817 39.2685 47.2854 38.3413 47.2891C37.1656 43.715 36.1568 40.0891 34.9478 36.5261C33.416 40.3224 31.7693 44.078 30.1189 47.8224C28.5464 44.0558 26.9442 40.2965 25.2827 36.5706C24.2109 40.1447 23.0611 43.6965 21.9856 47.2706C21.0324 47.2965 20.083 47.2891 19.1335 47.241Z" fill="#C50124"/>
<path d="M63.7576 29.4298C67.433 28.3557 71.4904 30.0076 73.7379 33.0187C73.0073 33.5446 72.284 34.0705 71.5571 34.5965C69.903 32.1076 66.4872 31.0261 63.7131 32.1668C60.5421 33.3224 58.7656 37.115 59.7892 40.3076C60.5346 43.1779 63.4349 45.2853 66.4056 45.0557C69.1983 45.0261 71.7092 42.9631 72.5066 40.3298C70.4222 40.315 68.3416 40.3409 66.2573 40.3113C66.2573 39.4483 66.2647 38.5816 66.261 37.7187C69.3059 37.7224 72.3508 37.7298 75.3994 37.715C75.4921 40.415 74.5538 43.1853 72.5474 45.0483C70.1923 47.452 66.4613 48.2779 63.2754 47.252C59.422 46.052 56.6627 42.1409 56.8444 38.1113C56.9149 34.1113 59.8671 30.3928 63.7576 29.4298Z" fill="#C50124"/>
<path d="M43.3481 29.4927C46.9716 29.5038 50.5914 29.4964 54.2111 29.4964C54.2 30.3593 54.2074 31.226 54.2149 32.089C51.5037 32.1149 48.7926 32.1001 46.0815 32.0964C46.0741 33.763 46.0704 35.4297 46.0926 37.0964C48.7185 37.0927 51.348 37.0816 53.9738 37.1038C53.9701 37.9705 53.959 38.8408 53.959 39.7075C51.3294 39.6779 48.7036 39.6964 46.0778 39.6927C46.0704 41.3556 46.0852 43.0186 46.0741 44.6816C48.7852 44.6779 51.4963 44.6593 54.2074 44.6927C54.2 45.5519 54.2074 46.4112 54.2149 47.2742C50.5951 47.2964 46.9716 47.3001 43.3481 47.2668C43.3593 41.3445 43.3593 35.4186 43.3481 29.4927Z" fill="#C50124"/>
</g>
<defs>
<clipPath id="clip0_2176_4046">
<rect width="94.2029" height="50" fill="white"/>
</clipPath>
</defs>
</svg>
