<svg width="95" height="50" viewBox="0 0 95 50" fill="none" xmlns="http://www.w3.org/2000/svg">
<path fill-rule="evenodd" clip-rule="evenodd" d="M60.6633 5.62591C60.2489 5.62591 59.8514 5.79162 59.5583 6.08658C59.2652 6.38154 59.1006 6.7816 59.1006 7.19874C59.1006 7.74616 59.3669 8.22618 59.7881 8.50806L54.4884 19.9555L55.5955 4.71183C55.9973 4.67757 56.3705 4.48838 56.6371 4.18377C56.9036 3.87916 57.0429 3.48269 57.0259 3.07716C57.0089 2.67163 56.8368 2.2884 56.5457 2.00751C56.2546 1.72662 55.8669 1.56978 55.4636 1.56976C55.0491 1.56976 54.6516 1.73547 54.3585 2.03043C54.0654 2.32539 53.9008 2.72545 53.9008 3.14259C53.9008 3.82636 54.3341 4.39676 54.9404 4.61379L51.3035 19.4974L49.5042 3.07875C49.8348 2.99147 50.1272 2.79626 50.3356 2.52373C50.5441 2.25119 50.6568 1.91675 50.656 1.57282C50.656 1.15568 50.4914 0.755632 50.1983 0.46067C49.9052 0.165708 49.5077 0 49.0933 0C48.6788 0 48.2813 0.165708 47.9882 0.46067C47.6951 0.755632 47.5305 1.15568 47.5305 1.57282C47.5305 2.3577 48.1059 2.99092 48.8533 3.10888L47.4031 19.1047L43.1887 4.66026C43.441 4.5285 43.6525 4.3295 43.8001 4.085C43.9476 3.8405 44.0256 3.55989 44.0254 3.27382C44.0254 2.96275 43.9338 2.65866 43.7621 2.40001C43.5903 2.14136 43.3463 1.93977 43.0607 1.82072C42.7751 1.70168 42.4609 1.67053 42.1578 1.73122C41.8546 1.79191 41.5762 1.9417 41.3576 2.16167C41.1391 2.38163 40.9902 2.66188 40.9299 2.96698C40.8696 3.27208 40.9006 3.58832 41.0188 3.87572C41.1371 4.16311 41.3374 4.40876 41.5944 4.58158C41.8514 4.7544 42.1536 4.84665 42.4627 4.84665C42.485 4.84665 42.5093 4.84461 42.5312 4.84358L44.3476 19.956L38.2269 8.96C38.5291 8.72149 38.7335 8.37934 38.801 7.99885C38.8685 7.61836 38.7945 7.22618 38.593 6.89714C38.3915 6.5681 38.0767 6.32526 37.7086 6.21495C37.3405 6.10463 36.945 6.13458 36.5975 6.29908C36.25 6.46357 35.9748 6.75109 35.8245 7.10676C35.6742 7.46243 35.6592 7.86135 35.7826 8.22739C35.9059 8.59343 36.1588 8.90096 36.493 9.09128C36.8273 9.2816 37.2195 9.34139 37.5947 9.25924L42.7224 24.7306C43.8925 28.3287 54.292 28.3941 55.8517 24.7306L60.4827 8.75165C60.5471 8.75982 60.5958 8.77105 60.6623 8.77105C61.0718 8.76376 61.4622 8.59494 61.7493 8.30093C62.0364 8.00692 62.1973 7.61122 62.1974 7.19898C62.1976 6.78675 62.0369 6.39094 61.75 6.09674C61.4631 5.80255 61.0729 5.63347 60.6633 5.62591ZM49.1587 26.3852C46.5086 26.3852 44.3603 25.5814 44.3603 24.5897C44.3603 23.598 46.5086 23.1323 49.1587 23.1323C51.8088 23.1323 53.6755 23.598 53.6755 24.5897C53.6755 25.5814 51.8083 26.3852 49.1587 26.3852ZM56.692 35.5995H58.239C59.1777 35.5995 59.5065 35.8124 59.5065 36.6386V46.8171C59.5065 47.6203 59.1777 47.9272 58.239 47.9272H56.692V49.5726H72.5064V42.8151H71.0111C71.0111 46.1466 69.7 47.8986 67.4928 47.8986H63.0552V42.4841H63.9264C65.3582 42.4841 66.1761 43.123 66.1761 44.3031V45.2488H67.8916V37.734H66.1761V38.5613C66.1761 39.721 65.3121 40.4277 63.9264 40.4277H63.0552V35.5995H67.1879C70.2175 35.5995 70.8467 37.3551 71.0111 39.9783H72.5064V33.8111H56.692V35.5995ZM49.7351 47.8986H45.9875V36.7101C45.9875 35.8834 46.3163 35.6 47.2555 35.6H48.664V33.851H39.9201V35.6H41.1414C42.0806 35.6 42.4094 35.8834 42.4094 36.7101V46.8171C42.4094 47.6203 42.0806 47.9277 41.1414 47.9277H39.9201V49.6129H54.74V42.6894H53.0504C53.0027 45.4061 53.0215 47.8986 49.7351 47.8986ZM28.8295 33.3704C23.4288 33.3704 20.0669 37.5619 20.0481 41.5052C20.0237 46.6092 23.3822 49.8228 28.6651 49.8228C34.2764 49.8228 37.5404 46.6567 37.5404 41.2448C37.5404 37.2346 34.0181 33.3704 28.8295 33.3704ZM28.7118 47.9635C25.8943 47.9635 24.2742 45.4276 24.2742 41.3867C24.2742 37.4404 25.9648 35.4029 28.8529 35.4029C31.6232 35.4029 33.2433 37.4879 33.2433 41.5522C33.2438 45.522 31.6004 47.9635 28.7118 47.9635ZM93.2821 35.5995H94.927V33.829H86.9772V35.5995H88.0169C88.4075 35.6597 88.6668 36.0626 88.2777 36.4553L86.068 39.0066L84.3129 36.8475C83.9222 36.39 83.9876 35.6041 84.7026 35.6041L85.5053 35.599V33.8285H76.4468V35.599C78.7219 35.6643 79.2902 35.9314 80.1117 36.9946L83.7923 41.4919L78.7869 46.7905C77.8949 47.8067 77.8096 47.8976 76.4473 47.8976V49.5894H84.3773V47.8976H82.4797C81.917 47.8976 81.7988 47.4865 81.7988 47.1801C81.7988 46.8727 82.1981 46.5183 82.3625 46.3054L85.1572 43.1225L87.9529 46.4714C88.0935 46.6603 88.3274 46.8732 88.3274 47.1097C88.3274 47.4171 88.0696 47.8981 87.5298 47.8981H85.9579V49.5899H94.9275V47.8981C93.5104 47.8981 93.3835 47.8307 92.112 46.2681L87.4323 40.7076L90.6172 37.2402C91.7903 35.9881 92.2495 35.5995 93.2821 35.5995ZM16.3188 45.0619V45.8713C16.3188 46.84 15.7566 47.3359 15.2872 47.3359C14.5358 47.3359 14.4891 46.4147 14.4419 45.8713V45.2172C14.4419 43.0581 13.4672 42.2074 12.2322 41.5532C14.5332 41.0104 16.06 39.627 16.06 37.7126C16.06 35.2313 14.3694 33.8132 11.3646 33.8132H0V35.6H1.53892C2.4781 35.6 2.80689 35.8185 2.80689 36.6453V46.7885C2.80689 47.5917 2.4781 47.8986 1.53892 47.8986H0V49.5746H8.85197V47.8986H7.63067C6.69149 47.8986 6.3627 47.5917 6.3627 46.7885V42.2727H7.94171C9.63234 42.2727 10.8709 43.2241 10.9648 45.0201L11.1058 47.0938C11.1997 48.9843 12.4676 50 14.6981 50C17.0697 50 17.6268 48.8423 17.6268 46.3845V45.0614H16.3188V45.0619ZM9.11226 40.2214H6.36473V35.5862H8.8063C11.1545 35.5862 11.9993 36.37 11.9993 37.9056C11.9998 39.4886 11.0845 40.2214 9.11226 40.2214Z" fill="#2A7966"/>
</svg>
